<svg width="320" height="478" viewBox="0 0 320 478" fill="none" xmlns="http://www.w3.org/2000/svg">
<rect x="1" y="1" width="160" height="160" stroke="black" stroke-width="2"/>
<rect x="159" y="159" width="160" height="160" stroke="black" stroke-width="2"/>
<rect x="159" y="317" width="160" height="160" stroke="black" stroke-width="2"/>
<rect x="1" y="159" width="160" height="160" stroke="black" stroke-width="2"/>
<path d="M95.895 62.247C94.3843 54.625 89.6807 50.814 81.784 50.814C75.6727 50.814 71.1063 53.183 68.085 57.921C65.0637 62.5903 63.5873 70.3153 63.656 81.096C65.2353 77.5253 67.8447 74.7443 71.484 72.753C75.192 70.693 79.312 69.663 83.844 69.663C90.9167 69.663 96.5473 71.8603 100.736 76.255C104.993 80.6497 107.122 86.7267 107.122 94.486C107.122 99.1553 106.195 103.344 104.341 107.052C102.556 110.76 99.809 113.713 96.101 115.91C92.4617 118.107 88.0327 119.206 82.814 119.206C75.7413 119.206 70.2137 117.627 66.231 114.468C62.2483 111.309 59.4673 106.949 57.888 101.387C56.3087 95.825 55.519 88.9583 55.519 80.787C55.519 55.5863 64.3083 42.986 81.887 42.986C88.6163 42.986 93.9037 44.8057 97.749 48.445C101.594 52.0843 103.86 56.685 104.547 62.247H95.895ZM81.887 77.594C78.9343 77.594 76.1533 78.212 73.544 79.448C70.9347 80.6153 68.806 82.435 67.158 84.907C65.5787 87.3103 64.789 90.263 64.789 93.765C64.789 98.9837 66.2997 103.241 69.321 106.537C72.3423 109.764 76.6683 111.378 82.299 111.378C87.1057 111.378 90.9167 109.902 93.732 106.949C96.616 103.928 98.058 99.8763 98.058 94.795C98.058 89.439 96.6847 85.2503 93.938 82.229C91.1913 79.139 87.1743 77.594 81.887 77.594Z" fill="black"/>
<path d="M67.982 241.272C64.1367 239.761 61.184 237.564 59.124 234.68C57.064 231.796 56.034 228.294 56.034 224.174C56.034 220.466 56.961 217.136 58.815 214.183C60.669 211.162 63.4157 208.793 67.055 207.076C70.763 205.291 75.2263 204.398 80.445 204.398C85.6637 204.398 90.0927 205.291 93.732 207.076C97.44 208.793 100.221 211.162 102.075 214.183C103.998 217.136 104.959 220.466 104.959 224.174C104.959 228.157 103.895 231.659 101.766 234.68C99.6373 237.633 96.719 239.83 93.011 241.272C97.2683 242.577 100.633 244.877 103.105 248.173C105.646 251.4 106.916 255.314 106.916 259.915C106.916 264.378 105.817 268.292 103.62 271.657C101.423 274.953 98.2983 277.528 94.247 279.382C90.2643 281.167 85.6637 282.06 80.445 282.06C75.2263 282.06 70.6257 281.167 66.643 279.382C62.729 277.528 59.6733 274.953 57.476 271.657C55.2787 268.292 54.18 264.378 54.18 259.915C54.18 255.314 55.416 251.366 57.888 248.07C60.36 244.774 63.7247 242.508 67.982 241.272ZM95.895 225.307C95.895 221.118 94.5217 217.891 91.775 215.625C89.0283 213.359 85.2517 212.226 80.445 212.226C75.707 212.226 71.9647 213.359 69.218 215.625C66.4713 217.891 65.098 221.153 65.098 225.41C65.098 229.255 66.5057 232.345 69.321 234.68C72.205 237.015 75.913 238.182 80.445 238.182C85.0457 238.182 88.7537 237.015 91.569 234.68C94.453 232.277 95.895 229.152 95.895 225.307ZM80.445 245.392C75.3637 245.392 71.2093 246.594 67.982 248.997C64.7547 251.332 63.141 254.868 63.141 259.606C63.141 264.001 64.686 267.537 67.776 270.215C70.9347 272.893 75.1577 274.232 80.445 274.232C85.7323 274.232 89.921 272.893 93.011 270.215C96.101 267.537 97.646 264.001 97.646 259.606C97.646 255.005 96.0667 251.503 92.908 249.1C89.7493 246.628 85.595 245.392 80.445 245.392Z" fill="black"/>
<path d="M191.914 369.08V360.531H211.278V435H201.802V369.08H191.914ZM226.245 427.481C234.966 420.477 241.798 414.743 246.742 410.28C251.686 405.748 255.841 401.044 259.205 396.169C262.639 391.225 264.355 386.384 264.355 381.646C264.355 377.183 263.257 373.681 261.059 371.14C258.931 368.531 255.463 367.226 250.656 367.226C245.987 367.226 242.348 368.702 239.738 371.655C237.198 374.539 235.824 378.419 235.618 383.294H226.554C226.829 375.603 229.164 369.664 233.558 365.475C237.953 361.286 243.618 359.192 250.553 359.192C257.626 359.192 263.222 361.149 267.342 365.063C271.531 368.977 273.625 374.367 273.625 381.234C273.625 386.933 271.909 392.495 268.475 397.92C265.111 403.276 261.265 408.014 256.939 412.134C252.613 416.185 247.086 420.923 240.356 426.348H275.788V434.176H226.245V427.481Z" fill="black"/>
<path d="M191.914 214.08V205.531H211.278V280H201.802V214.08H191.914ZM227.378 241.993C227.378 230.182 229.301 220.981 233.146 214.389C236.992 207.728 243.721 204.398 253.334 204.398C262.879 204.398 269.574 207.728 273.419 214.389C277.265 220.981 279.187 230.182 279.187 241.993C279.187 254.01 277.265 263.348 273.419 270.009C269.574 276.67 262.879 280 253.334 280C243.721 280 236.992 276.67 233.146 270.009C229.301 263.348 227.378 254.01 227.378 241.993ZM269.917 241.993C269.917 236.019 269.505 230.972 268.681 226.852C267.926 222.663 266.312 219.299 263.84 216.758C261.437 214.217 257.935 212.947 253.334 212.947C248.665 212.947 245.094 214.217 242.622 216.758C240.219 219.299 238.605 222.663 237.781 226.852C237.026 230.972 236.648 236.019 236.648 241.993C236.648 248.173 237.026 253.357 237.781 257.546C238.605 261.735 240.219 265.099 242.622 267.64C245.094 270.181 248.665 271.451 253.334 271.451C257.935 271.451 261.437 270.181 263.84 267.64C266.312 265.099 267.926 261.735 268.681 257.546C269.505 253.357 269.917 248.173 269.917 241.993Z" fill="black"/>
</svg>
