<svg width="480" height="478" viewBox="0 0 480 478" fill="none" xmlns="http://www.w3.org/2000/svg">
<path d="M355.914 366.08V357.531H375.278V432H365.802V366.08H355.914ZM390.245 424.481C398.966 417.477 405.798 411.743 410.742 407.28C415.686 402.748 419.841 398.044 423.205 393.169C426.639 388.225 428.355 383.384 428.355 378.646C428.355 374.183 427.257 370.681 425.059 368.14C422.931 365.531 419.463 364.226 414.656 364.226C409.987 364.226 406.348 365.702 403.738 368.655C401.198 371.539 399.824 375.419 399.618 380.294H390.554C390.829 372.603 393.164 366.664 397.558 362.475C401.953 358.286 407.618 356.192 414.553 356.192C421.626 356.192 427.222 358.149 431.342 362.063C435.531 365.977 437.625 371.367 437.625 378.234C437.625 383.933 435.909 389.495 432.475 394.92C429.111 400.276 425.265 405.014 420.939 409.134C416.613 413.185 411.086 417.923 404.356 423.348H439.788V431.176H390.245V424.481Z" fill="black"/>
<path d="M195.914 215.08V206.531H215.278V281H205.802V215.08H195.914ZM231.378 242.993C231.378 231.182 233.301 221.981 237.146 215.389C240.992 208.728 247.721 205.398 257.334 205.398C266.879 205.398 273.574 208.728 277.419 215.389C281.265 221.981 283.187 231.182 283.187 242.993C283.187 255.01 281.265 264.348 277.419 271.009C273.574 277.67 266.879 281 257.334 281C247.721 281 240.992 277.67 237.146 271.009C233.301 264.348 231.378 255.01 231.378 242.993ZM273.917 242.993C273.917 237.019 273.505 231.972 272.681 227.852C271.926 223.663 270.312 220.299 267.84 217.758C265.437 215.217 261.935 213.947 257.334 213.947C252.665 213.947 249.094 215.217 246.622 217.758C244.219 220.299 242.605 223.663 241.781 227.852C241.026 231.972 240.648 237.019 240.648 242.993C240.648 249.173 241.026 254.357 241.781 258.546C242.605 262.735 244.219 266.099 246.622 268.64C249.094 271.181 252.665 272.451 257.334 272.451C261.935 272.451 265.437 271.181 267.84 268.64C270.312 266.099 271.926 262.735 272.681 258.546C273.505 254.357 273.917 249.173 273.917 242.993Z" fill="black"/>
<path d="M64.982 81.272C61.1367 79.7613 58.184 77.564 56.124 74.68C54.064 71.796 53.034 68.294 53.034 64.174C53.034 60.466 53.961 57.1357 55.815 54.183C57.669 51.1617 60.4157 48.7927 64.055 47.076C67.763 45.2907 72.2263 44.398 77.445 44.398C82.6637 44.398 87.0927 45.2907 90.732 47.076C94.44 48.7927 97.221 51.1617 99.075 54.183C100.998 57.1357 101.959 60.466 101.959 64.174C101.959 68.1567 100.895 71.6587 98.766 74.68C96.6373 77.6327 93.719 79.83 90.011 81.272C94.2683 82.5767 97.633 84.877 100.105 88.173C102.646 91.4003 103.916 95.3143 103.916 99.915C103.916 104.378 102.817 108.292 100.62 111.657C98.4227 114.953 95.2983 117.528 91.247 119.382C87.2643 121.167 82.6637 122.06 77.445 122.06C72.2263 122.06 67.6257 121.167 63.643 119.382C59.729 117.528 56.6733 114.953 54.476 111.657C52.2787 108.292 51.18 104.378 51.18 99.915C51.18 95.3143 52.416 91.366 54.888 88.07C57.36 84.774 60.7247 82.508 64.982 81.272ZM92.895 65.307C92.895 61.1183 91.5217 57.891 88.775 55.625C86.0283 53.359 82.2517 52.226 77.445 52.226C72.707 52.226 68.9647 53.359 66.218 55.625C63.4713 57.891 62.098 61.1527 62.098 65.41C62.098 69.2553 63.5057 72.3453 66.321 74.68C69.205 77.0147 72.913 78.182 77.445 78.182C82.0457 78.182 85.7537 77.0147 88.569 74.68C91.453 72.2767 92.895 69.1523 92.895 65.307ZM77.445 85.392C72.3637 85.392 68.2093 86.5937 64.982 88.997C61.7547 91.3317 60.141 94.868 60.141 99.606C60.141 104.001 61.686 107.537 64.776 110.215C67.9347 112.893 72.1577 114.232 77.445 114.232C82.7323 114.232 86.921 112.893 90.011 110.215C93.101 107.537 94.646 104.001 94.646 99.606C94.646 95.0053 93.0667 91.5033 89.908 89.1C86.7493 86.628 82.595 85.392 77.445 85.392Z" fill="black"/>
<path d="M92.895 220.247C91.3843 212.625 86.6807 208.814 78.784 208.814C72.6727 208.814 68.1063 211.183 65.085 215.921C62.0637 220.59 60.5873 228.315 60.656 239.096C62.2353 235.525 64.8447 232.744 68.484 230.753C72.192 228.693 76.312 227.663 80.844 227.663C87.9167 227.663 93.5473 229.86 97.736 234.255C101.993 238.65 104.122 244.727 104.122 252.486C104.122 257.155 103.195 261.344 101.341 265.052C99.5557 268.76 96.809 271.713 93.101 273.91C89.4617 276.107 85.0327 277.206 79.814 277.206C72.7413 277.206 67.2137 275.627 63.231 272.468C59.2483 269.309 56.4673 264.949 54.888 259.387C53.3087 253.825 52.519 246.958 52.519 238.787C52.519 213.586 61.3083 200.986 78.887 200.986C85.6163 200.986 90.9037 202.806 94.749 206.445C98.5943 210.084 100.86 214.685 101.547 220.247H92.895ZM78.887 235.594C75.9343 235.594 73.1533 236.212 70.544 237.448C67.9347 238.615 65.806 240.435 64.158 242.907C62.5787 245.31 61.789 248.263 61.789 251.765C61.789 256.984 63.2997 261.241 66.321 264.537C69.3423 267.764 73.6683 269.378 79.299 269.378C84.1057 269.378 87.9167 267.902 90.732 264.949C93.616 261.928 95.058 257.876 95.058 252.795C95.058 247.439 93.6847 243.25 90.938 240.229C88.1913 237.139 84.1743 235.594 78.887 235.594Z" fill="black"/>
<rect x="319" y="317" width="160" height="160" stroke="black" stroke-width="2"/>
<rect x="160" y="159" width="160" height="160" stroke="black" stroke-width="2"/>
<rect x="1" y="1" width="160" height="160" stroke="black" stroke-width="2"/>
<rect x="1" y="159" width="160" height="160" stroke="black" stroke-width="2"/>
</svg>
