<svg width="480" height="478" viewBox="0 0 480 478" fill="none" xmlns="http://www.w3.org/2000/svg">
<path d="M355.914 366.08V357.531H375.278V432H365.802V366.08H355.914ZM391.172 376.277C391.653 369.96 394.091 365.016 398.485 361.445C402.88 357.874 408.579 356.089 415.583 356.089C420.253 356.089 424.27 356.947 427.634 358.664C431.068 360.312 433.643 362.578 435.359 365.462C437.145 368.346 438.037 371.608 438.037 375.247C438.037 379.504 436.801 383.178 434.329 386.268C431.926 389.358 428.767 391.349 424.853 392.242V392.757C429.317 393.856 432.853 396.019 435.462 399.246C438.072 402.473 439.376 406.696 439.376 411.915C439.376 415.829 438.484 419.365 436.698 422.524C434.913 425.614 432.235 428.052 428.664 429.837C425.094 431.622 420.802 432.515 415.789 432.515C408.511 432.515 402.537 430.627 397.867 426.85C393.198 423.005 390.589 417.58 390.039 410.576H399.103C399.584 414.696 401.266 418.061 404.15 420.67C407.034 423.279 410.88 424.584 415.686 424.584C420.493 424.584 424.132 423.348 426.604 420.876C429.145 418.335 430.415 415.074 430.415 411.091C430.415 405.941 428.699 402.233 425.265 399.967C421.832 397.701 416.648 396.568 409.712 396.568H407.343V388.74H409.815C416.133 388.671 420.905 387.641 424.132 385.65C427.36 383.59 428.973 380.431 428.973 376.174C428.973 372.535 427.772 369.616 425.368 367.419C423.034 365.222 419.669 364.123 415.274 364.123C411.017 364.123 407.584 365.222 404.974 367.419C402.365 369.616 400.82 372.569 400.339 376.277H391.172Z" fill="black"/>
<path d="M260.221 213.844L231.587 281H222.111L251.157 214.771H211.399V206.737H260.221V213.844Z" fill="black"/>
<path opacity="0.9" d="M98.869 53.668H62.716V77.152C64.2953 74.9547 66.63 73.1693 69.72 71.796C72.81 70.354 76.1403 69.633 79.711 69.633C85.4103 69.633 90.0453 70.8347 93.616 73.238C97.1867 75.5727 99.7273 78.6283 101.238 82.405C102.817 86.113 103.607 90.0613 103.607 94.25C103.607 99.194 102.68 103.623 100.826 107.537C98.972 111.451 96.1223 114.541 92.277 116.807C88.5003 119.073 83.7967 120.206 78.166 120.206C70.956 120.206 65.1193 118.352 60.656 114.644C56.1927 110.936 53.4803 105.992 52.519 99.812H61.686C62.5787 103.726 64.467 106.782 67.351 108.979C70.235 111.176 73.8743 112.275 78.269 112.275C83.6937 112.275 87.7793 110.661 90.526 107.434C93.2727 104.138 94.646 99.812 94.646 94.456C94.646 89.1 93.2727 84.98 90.526 82.096C87.7793 79.1433 83.728 77.667 78.372 77.667C74.7327 77.667 71.5397 78.5597 68.793 80.345C66.115 82.0617 64.158 84.4307 62.922 87.452H54.064V45.428H98.869V53.668Z" fill="black"/>
<path d="M63.437 257.018C64.1237 260.932 65.703 263.953 68.175 266.082C70.7157 268.211 74.1147 269.275 78.372 269.275C84.0713 269.275 88.26 267.043 90.938 262.58C93.6847 258.117 94.9893 250.598 94.852 240.023C93.41 243.113 91.0067 245.551 87.642 247.336C84.2773 249.053 80.535 249.911 76.415 249.911C71.8143 249.911 67.6943 248.984 64.055 247.13C60.4843 245.207 57.669 242.426 55.609 238.787C53.549 235.148 52.519 230.753 52.519 225.603C52.519 218.256 54.6477 212.35 58.905 207.887C63.1623 203.355 69.205 201.089 77.033 201.089C86.6463 201.089 93.3757 204.213 97.221 210.462C101.135 216.711 103.092 226.015 103.092 238.375C103.092 247.027 102.302 254.168 100.723 259.799C99.2123 265.43 96.603 269.721 92.895 272.674C89.2557 275.627 84.243 277.103 77.857 277.103C70.853 277.103 65.394 275.215 61.48 271.438C57.566 267.661 55.3343 262.855 54.785 257.018H63.437ZM77.96 241.98C82.5607 241.98 86.3373 240.572 89.29 237.757C92.2427 234.873 93.719 230.993 93.719 226.118C93.719 220.968 92.277 216.814 89.393 213.655C86.509 210.496 82.4577 208.917 77.239 208.917C72.4323 208.917 68.587 210.428 65.703 213.449C62.8877 216.47 61.48 220.453 61.48 225.397C61.48 230.41 62.8877 234.427 65.703 237.448C68.5183 240.469 72.604 241.98 77.96 241.98Z" fill="black"/>
<rect x="319" y="317" width="160" height="160" stroke="black" stroke-width="2"/>
<rect x="160" y="159" width="160" height="160" stroke="black" stroke-width="2"/>
<rect x="1" y="1" width="160" height="160" stroke="black" stroke-width="2"/>
<rect x="1" y="159" width="160" height="160" stroke="black" stroke-width="2"/>
</svg>
