<svg width="480" height="478" viewBox="0 0 480 478" fill="none" xmlns="http://www.w3.org/2000/svg">
<path d="M355.914 366.08V357.531H375.278V432H365.802V366.08H355.914ZM389.112 415.417V408.31L425.265 358.252H436.492V407.28H446.792V415.417H436.492V432H427.222V415.417H389.112ZM427.634 368.037L399.927 407.28H427.634V368.037Z" fill="black"/>
<path d="M227.982 242.272C224.137 240.761 221.184 238.564 219.124 235.68C217.064 232.796 216.034 229.294 216.034 225.174C216.034 221.466 216.961 218.136 218.815 215.183C220.669 212.162 223.416 209.793 227.055 208.076C230.763 206.291 235.226 205.398 240.445 205.398C245.664 205.398 250.093 206.291 253.732 208.076C257.44 209.793 260.221 212.162 262.075 215.183C263.998 218.136 264.959 221.466 264.959 225.174C264.959 229.157 263.895 232.659 261.766 235.68C259.637 238.633 256.719 240.83 253.011 242.272C257.268 243.577 260.633 245.877 263.105 249.173C265.646 252.4 266.916 256.314 266.916 260.915C266.916 265.378 265.817 269.292 263.62 272.657C261.423 275.953 258.298 278.528 254.247 280.382C250.264 282.167 245.664 283.06 240.445 283.06C235.226 283.06 230.626 282.167 226.643 280.382C222.729 278.528 219.673 275.953 217.476 272.657C215.279 269.292 214.18 265.378 214.18 260.915C214.18 256.314 215.416 252.366 217.888 249.07C220.36 245.774 223.725 243.508 227.982 242.272ZM255.895 226.307C255.895 222.118 254.522 218.891 251.775 216.625C249.028 214.359 245.252 213.226 240.445 213.226C235.707 213.226 231.965 214.359 229.218 216.625C226.471 218.891 225.098 222.153 225.098 226.41C225.098 230.255 226.506 233.345 229.321 235.68C232.205 238.015 235.913 239.182 240.445 239.182C245.046 239.182 248.754 238.015 251.569 235.68C254.453 233.277 255.895 230.152 255.895 226.307ZM240.445 246.392C235.364 246.392 231.209 247.594 227.982 249.997C224.755 252.332 223.141 255.868 223.141 260.606C223.141 265.001 224.686 268.537 227.776 271.215C230.935 273.893 235.158 275.232 240.445 275.232C245.732 275.232 249.921 273.893 253.011 271.215C256.101 268.537 257.646 265.001 257.646 260.606C257.646 256.005 256.067 252.503 252.908 250.1C249.749 247.628 245.595 246.392 240.445 246.392Z" fill="black"/>
<path opacity="0.9" d="M92.895 63.247C91.3843 55.625 86.6807 51.814 78.784 51.814C72.6727 51.814 68.1063 54.183 65.085 58.921C62.0637 63.5903 60.5873 71.3153 60.656 82.096C62.2353 78.5253 64.8447 75.7443 68.484 73.753C72.192 71.693 76.312 70.663 80.844 70.663C87.9167 70.663 93.5473 72.8603 97.736 77.255C101.993 81.6497 104.122 87.7267 104.122 95.486C104.122 100.155 103.195 104.344 101.341 108.052C99.5557 111.76 96.809 114.713 93.101 116.91C89.4617 119.107 85.0327 120.206 79.814 120.206C72.7413 120.206 67.2137 118.627 63.231 115.468C59.2483 112.309 56.4673 107.949 54.888 102.387C53.3087 96.825 52.519 89.9583 52.519 81.787C52.519 56.5863 61.3083 43.986 78.887 43.986C85.6163 43.986 90.9037 45.8057 94.749 49.445C98.5943 53.0843 100.86 57.685 101.547 63.247H92.895ZM78.887 78.594C75.9343 78.594 73.1533 79.212 70.544 80.448C67.9347 81.6153 65.806 83.435 64.158 85.907C62.5787 88.3103 61.789 91.263 61.789 94.765C61.789 99.9837 63.2997 104.241 66.321 107.537C69.3423 110.764 73.6683 112.378 79.299 112.378C84.1057 112.378 87.9167 110.902 90.732 107.949C93.616 104.928 95.058 100.876 95.058 95.795C95.058 90.439 93.6847 86.2503 90.938 83.229C88.1913 80.139 84.1743 78.594 78.887 78.594Z" fill="black"/>
<path d="M101.221 213.844L72.587 281H63.111L92.157 214.771H52.399V206.737H101.221V213.844Z" fill="black"/>
<rect x="319" y="317" width="160" height="160" stroke="black" stroke-width="2"/>
<rect x="160" y="159" width="160" height="160" stroke="black" stroke-width="2"/>
<rect x="1" y="1" width="160" height="160" stroke="black" stroke-width="2"/>
<rect x="1" y="159" width="160" height="160" stroke="black" stroke-width="2"/>
</svg>
