<svg width="480" height="478" viewBox="0 0 480 478" fill="none" xmlns="http://www.w3.org/2000/svg">
<path d="M355.914 366.08V357.531H375.278V432H365.802V366.08H355.914ZM391.172 376.277C391.653 369.96 394.091 365.016 398.485 361.445C402.88 357.874 408.579 356.089 415.583 356.089C420.253 356.089 424.27 356.947 427.634 358.664C431.068 360.312 433.643 362.578 435.359 365.462C437.145 368.346 438.037 371.608 438.037 375.247C438.037 379.504 436.801 383.178 434.329 386.268C431.926 389.358 428.767 391.349 424.853 392.242V392.757C429.317 393.856 432.853 396.019 435.462 399.246C438.072 402.473 439.376 406.696 439.376 411.915C439.376 415.829 438.484 419.365 436.698 422.524C434.913 425.614 432.235 428.052 428.664 429.837C425.094 431.622 420.802 432.515 415.789 432.515C408.511 432.515 402.537 430.627 397.867 426.85C393.198 423.005 390.589 417.58 390.039 410.576H399.103C399.584 414.696 401.266 418.061 404.15 420.67C407.034 423.279 410.88 424.584 415.686 424.584C420.493 424.584 424.132 423.348 426.604 420.876C429.145 418.335 430.415 415.074 430.415 411.091C430.415 405.941 428.699 402.233 425.265 399.967C421.832 397.701 416.648 396.568 409.712 396.568H407.343V388.74H409.815C416.133 388.671 420.905 387.641 424.132 385.65C427.36 383.59 428.973 380.431 428.973 376.174C428.973 372.535 427.772 369.616 425.368 367.419C423.034 365.222 419.669 364.123 415.274 364.123C411.017 364.123 407.584 365.222 404.974 367.419C402.365 369.616 400.82 372.569 400.339 376.277H391.172Z" fill="black"/>
<path d="M226.437 261.018C227.124 264.932 228.703 267.953 231.175 270.082C233.716 272.211 237.115 273.275 241.372 273.275C247.071 273.275 251.26 271.043 253.938 266.58C256.685 262.117 257.989 254.598 257.852 244.023C256.41 247.113 254.007 249.551 250.642 251.336C247.277 253.053 243.535 253.911 239.415 253.911C234.814 253.911 230.694 252.984 227.055 251.13C223.484 249.207 220.669 246.426 218.609 242.787C216.549 239.148 215.519 234.753 215.519 229.603C215.519 222.256 217.648 216.35 221.905 211.887C226.162 207.355 232.205 205.089 240.033 205.089C249.646 205.089 256.376 208.213 260.221 214.462C264.135 220.711 266.092 230.015 266.092 242.375C266.092 251.027 265.302 258.168 263.723 263.799C262.212 269.43 259.603 273.721 255.895 276.674C252.256 279.627 247.243 281.103 240.857 281.103C233.853 281.103 228.394 279.215 224.48 275.438C220.566 271.661 218.334 266.855 217.785 261.018H226.437ZM240.96 245.98C245.561 245.98 249.337 244.572 252.29 241.757C255.243 238.873 256.719 234.993 256.719 230.118C256.719 224.968 255.277 220.814 252.393 217.655C249.509 214.496 245.458 212.917 240.239 212.917C235.432 212.917 231.587 214.428 228.703 217.449C225.888 220.47 224.48 224.453 224.48 229.397C224.48 234.41 225.888 238.427 228.703 241.448C231.518 244.469 235.604 245.98 240.96 245.98Z" fill="black"/>
<path opacity="0.9" d="M98.869 53.668H62.716V77.152C64.2953 74.9547 66.63 73.1693 69.72 71.796C72.81 70.354 76.1403 69.633 79.711 69.633C85.4103 69.633 90.0453 70.8347 93.616 73.238C97.1867 75.5727 99.7273 78.6283 101.238 82.405C102.817 86.113 103.607 90.0613 103.607 94.25C103.607 99.194 102.68 103.623 100.826 107.537C98.972 111.451 96.1223 114.541 92.277 116.807C88.5003 119.073 83.7967 120.206 78.166 120.206C70.956 120.206 65.1193 118.352 60.656 114.644C56.1927 110.936 53.4803 105.992 52.519 99.812H61.686C62.5787 103.726 64.467 106.782 67.351 108.979C70.235 111.176 73.8743 112.275 78.269 112.275C83.6937 112.275 87.7793 110.661 90.526 107.434C93.2727 104.138 94.646 99.812 94.646 94.456C94.646 89.1 93.2727 84.98 90.526 82.096C87.7793 79.1433 83.728 77.667 78.372 77.667C74.7327 77.667 71.5397 78.5597 68.793 80.345C66.115 82.0617 64.158 84.4307 62.922 87.452H54.064V45.428H98.869V53.668Z" fill="black"/>
<path d="M101.221 213.844L72.587 281H63.111L92.157 214.771H52.399V206.737H101.221V213.844Z" fill="black"/>
<rect x="319" y="317" width="160" height="160" stroke="black" stroke-width="2"/>
<rect x="160" y="159" width="160" height="160" stroke="black" stroke-width="2"/>
<rect x="1" y="1" width="160" height="160" stroke="black" stroke-width="2"/>
<rect x="1" y="159" width="160" height="160" stroke="black" stroke-width="2"/>
</svg>
