<svg width="855" height="863" viewBox="0 0 855 863" fill="none" xmlns="http://www.w3.org/2000/svg">
<rect x="2" y="3" width="852" height="852" stroke="black" stroke-width="2"/>
<line x1="214" y1="0.00351286" x2="211" y2="853.998" stroke="black" stroke-width="2"/>
<line x1="433" y1="4.00351" x2="430" y2="857.998" stroke="black" stroke-width="2"/>
<line x1="648" y1="8.00351" x2="645" y2="861.998" stroke="black" stroke-width="2"/>
<line y1="184" x2="853" y2="184" stroke="black" stroke-width="2"/>
<line y1="412" x2="853" y2="412" stroke="black" stroke-width="2"/>
<line y1="641" x2="853" y2="641" stroke="black" stroke-width="2"/>
<path d="M101.914 67.08V58.531H121.278V133H111.802V67.08H101.914Z" fill="black"/>
<path d="M310.253 125.481C318.974 118.477 325.806 112.743 330.75 108.28C335.694 103.748 339.848 99.0443 343.213 94.169C346.646 89.225 348.363 84.384 348.363 79.646C348.363 75.1827 347.264 71.6807 345.067 69.14C342.938 66.5307 339.471 65.226 334.664 65.226C329.995 65.226 326.355 66.7023 323.746 69.655C321.205 72.539 319.832 76.4187 319.626 81.294H310.562C310.837 73.6033 313.171 67.6637 317.566 63.475C321.961 59.2863 327.626 57.192 334.561 57.192C341.634 57.192 347.23 59.149 351.35 63.063C355.539 66.977 357.633 72.3673 357.633 79.234C357.633 84.9333 355.916 90.4953 352.483 95.92C349.118 101.276 345.273 106.014 340.947 110.134C336.621 114.185 331.093 118.923 324.364 124.348H359.796V132.176H310.253V125.481Z" fill="black"/>
<path d="M516.12 116.417V109.31L552.273 59.252H563.5V108.28H573.8V116.417H563.5V133H554.23V116.417H516.12ZM554.642 69.037L526.935 108.28H554.642V69.037Z" fill="black"/>
<path d="M782.221 65.844L753.587 133H744.111L773.157 66.771H733.399V58.737H782.221V65.844Z" fill="black"/>
<path d="M85.12 319.417V312.31L121.273 262.252H132.5V311.28H142.8V319.417H132.5V336H123.23V319.417H85.12ZM123.642 272.037L95.935 311.28H123.642V272.037Z" fill="black"/>
<path d="M315.265 260.282C322.063 260.282 327.556 262.205 331.745 266.05C335.934 269.895 338.028 275.045 338.028 281.5C338.028 288.71 335.796 294.066 331.333 297.568C326.87 301.001 320.827 302.718 313.205 302.718L312.896 312.503H304.759L304.347 296.229H307.334C314.132 296.229 319.454 295.199 323.299 293.139C327.144 291.079 329.067 287.199 329.067 281.5C329.067 277.38 327.831 274.118 325.359 271.715C322.887 269.312 319.557 268.11 315.368 268.11C311.111 268.11 307.746 269.277 305.274 271.612C302.871 273.878 301.669 277.002 301.669 280.985H292.811C292.811 276.865 293.738 273.26 295.592 270.17C297.446 267.011 300.055 264.574 303.42 262.857C306.853 261.14 310.802 260.282 315.265 260.282ZM308.776 333.618C306.991 333.618 305.48 333 304.244 331.764C303.008 330.528 302.39 329.017 302.39 327.232C302.39 325.447 303.008 323.936 304.244 322.7C305.48 321.464 306.991 320.846 308.776 320.846C310.493 320.846 311.935 321.464 313.102 322.7C314.338 323.936 314.956 325.447 314.956 327.232C314.956 329.017 314.338 330.528 313.102 331.764C311.935 333 310.493 333.618 308.776 333.618Z" fill="black"/>
<path d="M555.221 267.844L526.587 335H517.111L546.157 268.771H506.399V260.737H555.221V267.844Z" fill="black"/>
<path d="M714.914 261.08V252.531H734.278V327H724.802V261.08H714.914ZM750.378 288.993C750.378 277.182 752.301 267.981 756.146 261.389C759.992 254.728 766.721 251.398 776.334 251.398C785.879 251.398 792.574 254.728 796.419 261.389C800.265 267.981 802.187 277.182 802.187 288.993C802.187 301.01 800.265 310.348 796.419 317.009C792.574 323.67 785.879 327 776.334 327C766.721 327 759.992 323.67 756.146 317.009C752.301 310.348 750.378 301.01 750.378 288.993ZM792.917 288.993C792.917 283.019 792.505 277.972 791.681 273.852C790.926 269.663 789.312 266.299 786.84 263.758C784.437 261.217 780.935 259.947 776.334 259.947C771.665 259.947 768.094 261.217 765.622 263.758C763.219 266.299 761.605 269.663 760.781 273.852C760.026 277.972 759.648 283.019 759.648 288.993C759.648 295.173 760.026 300.357 760.781 304.546C761.605 308.735 763.219 312.099 765.622 314.64C768.094 317.181 771.665 318.451 776.334 318.451C780.935 318.451 784.437 317.181 786.84 314.64C789.312 312.099 790.926 308.735 791.681 304.546C792.505 300.357 792.917 295.173 792.917 288.993Z" fill="black"/>
<path d="M131.895 507.247C130.384 499.625 125.681 495.814 117.784 495.814C111.673 495.814 107.106 498.183 104.085 502.921C101.064 507.59 99.5873 515.315 99.656 526.096C101.235 522.525 103.845 519.744 107.484 517.753C111.192 515.693 115.312 514.663 119.844 514.663C126.917 514.663 132.547 516.86 136.736 521.255C140.993 525.65 143.122 531.727 143.122 539.486C143.122 544.155 142.195 548.344 140.341 552.052C138.556 555.76 135.809 558.713 132.101 560.91C128.462 563.107 124.033 564.206 118.814 564.206C111.741 564.206 106.214 562.627 102.231 559.468C98.2483 556.309 95.4673 551.949 93.888 546.387C92.3087 540.825 91.519 533.958 91.519 525.787C91.519 500.586 100.308 487.986 117.887 487.986C124.616 487.986 129.904 489.806 133.749 493.445C137.594 497.084 139.86 501.685 140.547 507.247H131.895ZM117.887 522.594C114.934 522.594 112.153 523.212 109.544 524.448C106.935 525.615 104.806 527.435 103.158 529.907C101.579 532.31 100.789 535.263 100.789 538.765C100.789 543.984 102.3 548.241 105.321 551.537C108.342 554.764 112.668 556.378 118.299 556.378C123.106 556.378 126.917 554.902 129.732 551.949C132.616 548.928 134.058 544.876 134.058 539.795C134.058 534.439 132.685 530.25 129.938 527.229C127.191 524.139 123.174 522.594 117.887 522.594Z" fill="black"/>
<path d="M318.265 491.282C325.063 491.282 330.556 493.205 334.745 497.05C338.934 500.895 341.028 506.045 341.028 512.5C341.028 519.71 338.796 525.066 334.333 528.568C329.87 532.001 323.827 533.718 316.205 533.718L315.896 543.503H307.759L307.347 527.229H310.334C317.132 527.229 322.454 526.199 326.299 524.139C330.144 522.079 332.067 518.199 332.067 512.5C332.067 508.38 330.831 505.118 328.359 502.715C325.887 500.312 322.557 499.11 318.368 499.11C314.111 499.11 310.746 500.277 308.274 502.612C305.871 504.878 304.669 508.002 304.669 511.985H295.811C295.811 507.865 296.738 504.26 298.592 501.17C300.446 498.011 303.055 495.574 306.42 493.857C309.853 492.14 313.802 491.282 318.265 491.282ZM311.776 564.618C309.991 564.618 308.48 564 307.244 562.764C306.008 561.528 305.39 560.017 305.39 558.232C305.39 556.447 306.008 554.936 307.244 553.7C308.48 552.464 309.991 551.846 311.776 551.846C313.493 551.846 314.935 552.464 316.102 553.7C317.338 554.936 317.956 556.447 317.956 558.232C317.956 560.017 317.338 561.528 316.102 562.764C314.935 564 313.493 564.618 311.776 564.618Z" fill="black"/>
<path d="M525.265 490.282C532.063 490.282 537.556 492.205 541.745 496.05C545.934 499.895 548.028 505.045 548.028 511.5C548.028 518.71 545.796 524.066 541.333 527.568C536.87 531.001 530.827 532.718 523.205 532.718L522.896 542.503H514.759L514.347 526.229H517.334C524.132 526.229 529.454 525.199 533.299 523.139C537.144 521.079 539.067 517.199 539.067 511.5C539.067 507.38 537.831 504.118 535.359 501.715C532.887 499.312 529.557 498.11 525.368 498.11C521.111 498.11 517.746 499.277 515.274 501.612C512.871 503.878 511.669 507.002 511.669 510.985H502.811C502.811 506.865 503.738 503.26 505.592 500.17C507.446 497.011 510.055 494.574 513.42 492.857C516.853 491.14 520.802 490.282 525.265 490.282ZM518.776 563.618C516.991 563.618 515.48 563 514.244 561.764C513.008 560.528 512.39 559.017 512.39 557.232C512.39 555.447 513.008 553.936 514.244 552.7C515.48 551.464 516.991 550.846 518.776 550.846C520.493 550.846 521.935 551.464 523.102 552.7C524.338 553.936 524.956 555.447 524.956 557.232C524.956 559.017 524.338 560.528 523.102 561.764C521.935 563 520.493 563.618 518.776 563.618Z" fill="black"/>
<path d="M702.914 498.08V489.531H722.278V564H712.802V498.08H702.914ZM737.245 556.481C745.966 549.477 752.798 543.743 757.742 539.28C762.686 534.748 766.841 530.044 770.205 525.169C773.639 520.225 775.355 515.384 775.355 510.646C775.355 506.183 774.257 502.681 772.059 500.14C769.931 497.531 766.463 496.226 761.656 496.226C756.987 496.226 753.348 497.702 750.738 500.655C748.198 503.539 746.824 507.419 746.618 512.294H737.554C737.829 504.603 740.164 498.664 744.558 494.475C748.953 490.286 754.618 488.192 761.553 488.192C768.626 488.192 774.222 490.149 778.342 494.063C782.531 497.977 784.625 503.367 784.625 510.234C784.625 515.933 782.909 521.495 779.475 526.92C776.111 532.276 772.265 537.014 767.939 541.134C763.613 545.185 758.086 549.923 751.356 555.348H786.788V563.176H737.245V556.481Z" fill="black"/>
<path d="M140.221 710.844L111.587 778H102.111L131.157 711.771H91.399V703.737H140.221V710.844Z" fill="black"/>
<path d="M316.982 739.272C313.137 737.761 310.184 735.564 308.124 732.68C306.064 729.796 305.034 726.294 305.034 722.174C305.034 718.466 305.961 715.136 307.815 712.183C309.669 709.162 312.416 706.793 316.055 705.076C319.763 703.291 324.226 702.398 329.445 702.398C334.664 702.398 339.093 703.291 342.732 705.076C346.44 706.793 349.221 709.162 351.075 712.183C352.998 715.136 353.959 718.466 353.959 722.174C353.959 726.157 352.895 729.659 350.766 732.68C348.637 735.633 345.719 737.83 342.011 739.272C346.268 740.577 349.633 742.877 352.105 746.173C354.646 749.4 355.916 753.314 355.916 757.915C355.916 762.378 354.817 766.292 352.62 769.657C350.423 772.953 347.298 775.528 343.247 777.382C339.264 779.167 334.664 780.06 329.445 780.06C324.226 780.06 319.626 779.167 315.643 777.382C311.729 775.528 308.673 772.953 306.476 769.657C304.279 766.292 303.18 762.378 303.18 757.915C303.18 753.314 304.416 749.366 306.888 746.07C309.36 742.774 312.725 740.508 316.982 739.272ZM344.895 723.307C344.895 719.118 343.522 715.891 340.775 713.625C338.028 711.359 334.252 710.226 329.445 710.226C324.707 710.226 320.965 711.359 318.218 713.625C315.471 715.891 314.098 719.153 314.098 723.41C314.098 727.255 315.506 730.345 318.321 732.68C321.205 735.015 324.913 736.182 329.445 736.182C334.046 736.182 337.754 735.015 340.569 732.68C343.453 730.277 344.895 727.152 344.895 723.307ZM329.445 743.392C324.364 743.392 320.209 744.594 316.982 746.997C313.755 749.332 312.141 752.868 312.141 757.606C312.141 762.001 313.686 765.537 316.776 768.215C319.935 770.893 324.158 772.232 329.445 772.232C334.732 772.232 338.921 770.893 342.011 768.215C345.101 765.537 346.646 762.001 346.646 757.606C346.646 753.005 345.067 749.503 341.908 747.1C338.749 744.628 334.595 743.392 329.445 743.392Z" fill="black"/>
<path d="M509.914 712.08V703.531H529.278V778H519.802V712.08H509.914ZM545.378 739.993C545.378 728.182 547.301 718.981 551.146 712.389C554.992 705.728 561.721 702.398 571.334 702.398C580.879 702.398 587.574 705.728 591.419 712.389C595.265 718.981 597.187 728.182 597.187 739.993C597.187 752.01 595.265 761.348 591.419 768.009C587.574 774.67 580.879 778 571.334 778C561.721 778 554.992 774.67 551.146 768.009C547.301 761.348 545.378 752.01 545.378 739.993ZM587.917 739.993C587.917 734.019 587.505 728.972 586.681 724.852C585.926 720.663 584.312 717.299 581.84 714.758C579.437 712.217 575.935 710.947 571.334 710.947C566.665 710.947 563.094 712.217 560.622 714.758C558.219 717.299 556.605 720.663 555.781 724.852C555.026 728.972 554.648 734.019 554.648 739.993C554.648 746.173 555.026 751.357 555.781 755.546C556.605 759.735 558.219 763.099 560.622 765.64C563.094 768.181 566.665 769.451 571.334 769.451C575.935 769.451 579.437 768.181 581.84 765.64C584.312 763.099 585.926 759.735 586.681 755.546C587.505 751.357 587.917 746.173 587.917 739.993Z" fill="black"/>
<path d="M741.265 705.282C748.063 705.282 753.556 707.205 757.745 711.05C761.934 714.895 764.028 720.045 764.028 726.5C764.028 733.71 761.796 739.066 757.333 742.568C752.87 746.001 746.827 747.718 739.205 747.718L738.896 757.503H730.759L730.347 741.229H733.334C740.132 741.229 745.454 740.199 749.299 738.139C753.144 736.079 755.067 732.199 755.067 726.5C755.067 722.38 753.831 719.118 751.359 716.715C748.887 714.312 745.557 713.11 741.368 713.11C737.111 713.11 733.746 714.277 731.274 716.612C728.871 718.878 727.669 722.002 727.669 725.985H718.811C718.811 721.865 719.738 718.26 721.592 715.17C723.446 712.011 726.055 709.574 729.42 707.857C732.853 706.14 736.802 705.282 741.265 705.282ZM734.776 778.618C732.991 778.618 731.48 778 730.244 776.764C729.008 775.528 728.39 774.017 728.39 772.232C728.39 770.447 729.008 768.936 730.244 767.7C731.48 766.464 732.991 765.846 734.776 765.846C736.493 765.846 737.935 766.464 739.102 767.7C740.338 768.936 740.956 770.447 740.956 772.232C740.956 774.017 740.338 775.528 739.102 776.764C737.935 778 736.493 778.618 734.776 778.618Z" fill="black"/>
</svg>
