<svg width="855" height="862" viewBox="0 0 855 862" fill="none" xmlns="http://www.w3.org/2000/svg">
<rect x="2" y="3" width="852" height="852" stroke="black" stroke-width="2"/>
<line x1="214" y1="0.00351286" x2="211" y2="853.998" stroke="black" stroke-width="2"/>
<line x1="433" y1="4.00351" x2="430" y2="857.998" stroke="black" stroke-width="2"/>
<line x1="648" y1="3.00351" x2="645" y2="856.998" stroke="black" stroke-width="2"/>
<line y1="184" x2="853" y2="184" stroke="black" stroke-width="2"/>
<line y1="412" x2="853" y2="412" stroke="black" stroke-width="2"/>
<line y1="641" x2="853" y2="641" stroke="black" stroke-width="2"/>
<path d="M150.221 65.844L121.587 133H112.111L141.157 66.771H101.399V58.737H150.221V65.844Z" fill="black"/>
<path d="M309.12 116.417V109.31L345.273 59.252H356.5V108.28H366.8V116.417H356.5V133H347.23V116.417H309.12ZM347.642 69.037L319.935 108.28H347.642V69.037Z" fill="black"/>
<path d="M565.869 66.668H529.716V90.152C531.295 87.9547 533.63 86.1693 536.72 84.796C539.81 83.354 543.14 82.633 546.711 82.633C552.41 82.633 557.045 83.8347 560.616 86.238C564.187 88.5727 566.727 91.6283 568.238 95.405C569.817 99.113 570.607 103.061 570.607 107.25C570.607 112.194 569.68 116.623 567.826 120.537C565.972 124.451 563.122 127.541 559.277 129.807C555.5 132.073 550.797 133.206 545.166 133.206C537.956 133.206 532.119 131.352 527.656 127.644C523.193 123.936 520.48 118.992 519.519 112.812H528.686C529.579 116.726 531.467 119.782 534.351 121.979C537.235 124.176 540.874 125.275 545.269 125.275C550.694 125.275 554.779 123.661 557.526 120.434C560.273 117.138 561.646 112.812 561.646 107.456C561.646 102.1 560.273 97.98 557.526 95.096C554.779 92.1433 550.728 90.667 545.372 90.667C541.733 90.667 538.54 91.5597 535.793 93.345C533.115 95.0617 531.158 97.4307 529.922 100.452H521.064V58.428H565.869V66.668Z" fill="black"/>
<path d="M735.253 125.481C743.974 118.477 750.806 112.743 755.75 108.28C760.694 103.748 764.848 99.0443 768.213 94.169C771.646 89.225 773.363 84.384 773.363 79.646C773.363 75.1827 772.264 71.6807 770.067 69.14C767.938 66.5307 764.471 65.226 759.664 65.226C754.995 65.226 751.355 66.7023 748.746 69.655C746.205 72.539 744.832 76.4187 744.626 81.294H735.562C735.837 73.6033 738.171 67.6637 742.566 63.475C746.961 59.2863 752.626 57.192 759.561 57.192C766.634 57.192 772.23 59.149 776.35 63.063C780.539 66.977 782.633 72.3673 782.633 79.234C782.633 84.9333 780.916 90.4953 777.483 95.92C774.118 101.276 770.273 106.014 765.947 110.134C761.621 114.185 756.093 118.923 749.364 124.348H784.796V132.176H735.253V125.481Z" fill="black"/>
<path d="M134.869 269.668H98.716V293.152C100.295 290.955 102.63 289.169 105.72 287.796C108.81 286.354 112.14 285.633 115.711 285.633C121.41 285.633 126.045 286.835 129.616 289.238C133.187 291.573 135.727 294.628 137.238 298.405C138.817 302.113 139.607 306.061 139.607 310.25C139.607 315.194 138.68 319.623 136.826 323.537C134.972 327.451 132.122 330.541 128.277 332.807C124.5 335.073 119.797 336.206 114.166 336.206C106.956 336.206 101.119 334.352 96.656 330.644C92.1927 326.936 89.4803 321.992 88.519 315.812H97.686C98.5787 319.726 100.467 322.782 103.351 324.979C106.235 327.176 109.874 328.275 114.269 328.275C119.694 328.275 123.779 326.661 126.526 323.434C129.273 320.138 130.646 315.812 130.646 310.456C130.646 305.1 129.273 300.98 126.526 298.096C123.779 295.143 119.728 293.667 114.372 293.667C110.733 293.667 107.54 294.56 104.793 296.345C102.115 298.062 100.158 300.431 98.922 303.452H90.064V261.428H134.869V269.668Z" fill="black"/>
<path d="M292.914 267.08V258.531H312.278V333H302.802V267.08H292.914Z" fill="black"/>
<path d="M521.437 315.018C522.124 318.932 523.703 321.953 526.175 324.082C528.716 326.211 532.115 327.275 536.372 327.275C542.071 327.275 546.26 325.043 548.938 320.58C551.685 316.117 552.989 308.598 552.852 298.023C551.41 301.113 549.007 303.551 545.642 305.336C542.277 307.053 538.535 307.911 534.415 307.911C529.814 307.911 525.694 306.984 522.055 305.13C518.484 303.207 515.669 300.426 513.609 296.787C511.549 293.148 510.519 288.753 510.519 283.603C510.519 276.256 512.648 270.35 516.905 265.887C521.162 261.355 527.205 259.089 535.033 259.089C544.646 259.089 551.376 262.213 555.221 268.462C559.135 274.711 561.092 284.015 561.092 296.375C561.092 305.027 560.302 312.168 558.723 317.799C557.212 323.43 554.603 327.721 550.895 330.674C547.256 333.627 542.243 335.103 535.857 335.103C528.853 335.103 523.394 333.215 519.48 329.438C515.566 325.661 513.334 320.855 512.785 315.018H521.437ZM535.96 299.98C540.561 299.98 544.337 298.572 547.29 295.757C550.243 292.873 551.719 288.993 551.719 284.118C551.719 278.968 550.277 274.814 547.393 271.655C544.509 268.496 540.458 266.917 535.239 266.917C530.432 266.917 526.587 268.428 523.703 271.449C520.888 274.47 519.48 278.453 519.48 283.397C519.48 288.41 520.888 292.427 523.703 295.448C526.518 298.469 530.604 299.98 535.96 299.98Z" fill="black"/>
<path d="M717.18 271.277C717.661 264.96 720.098 260.016 724.493 256.445C728.888 252.874 734.587 251.089 741.591 251.089C746.26 251.089 750.277 251.947 753.642 253.664C757.075 255.312 759.65 257.578 761.367 260.462C763.152 263.346 764.045 266.608 764.045 270.247C764.045 274.504 762.809 278.178 760.337 281.268C757.934 284.358 754.775 286.349 750.861 287.242V287.757C755.324 288.856 758.861 291.019 761.47 294.246C764.079 297.473 765.384 301.696 765.384 306.915C765.384 310.829 764.491 314.365 762.706 317.524C760.921 320.614 758.243 323.052 754.672 324.837C751.101 326.622 746.81 327.515 741.797 327.515C734.518 327.515 728.544 325.627 723.875 321.85C719.206 318.005 716.596 312.58 716.047 305.576H725.111C725.592 309.696 727.274 313.061 730.158 315.67C733.042 318.279 736.887 319.584 741.694 319.584C746.501 319.584 750.14 318.348 752.612 315.876C755.153 313.335 756.423 310.074 756.423 306.091C756.423 300.941 754.706 297.233 751.273 294.967C747.84 292.701 742.655 291.568 735.72 291.568H733.351V283.74H735.823C742.14 283.671 746.913 282.641 750.14 280.65C753.367 278.59 754.981 275.431 754.981 271.174C754.981 267.535 753.779 264.616 751.376 262.419C749.041 260.222 745.677 259.123 741.282 259.123C737.025 259.123 733.591 260.222 730.982 262.419C728.373 264.616 726.828 267.569 726.347 271.277H717.18Z" fill="black"/>
<path d="M89.253 556.481C97.9737 549.477 104.806 543.743 109.75 539.28C114.694 534.748 118.848 530.044 122.213 525.169C125.646 520.225 127.363 515.384 127.363 510.646C127.363 506.183 126.264 502.681 124.067 500.14C121.938 497.531 118.471 496.226 113.664 496.226C108.995 496.226 105.355 497.702 102.746 500.655C100.205 503.539 98.832 507.419 98.626 512.294H89.562C89.8367 504.603 92.1713 498.664 96.566 494.475C100.961 490.286 106.626 488.192 113.561 488.192C120.634 488.192 126.23 490.149 130.35 494.063C134.539 497.977 136.633 503.367 136.633 510.234C136.633 515.933 134.916 521.495 131.483 526.92C128.118 532.276 124.273 537.014 119.947 541.134C115.621 545.185 110.093 549.923 103.364 555.348H138.796V563.176H89.253V556.481Z" fill="black"/>
<path d="M310.437 544.018C311.124 547.932 312.703 550.953 315.175 553.082C317.716 555.211 321.115 556.275 325.372 556.275C331.071 556.275 335.26 554.043 337.938 549.58C340.685 545.117 341.989 537.598 341.852 527.023C340.41 530.113 338.007 532.551 334.642 534.336C331.277 536.053 327.535 536.911 323.415 536.911C318.814 536.911 314.694 535.984 311.055 534.13C307.484 532.207 304.669 529.426 302.609 525.787C300.549 522.148 299.519 517.753 299.519 512.603C299.519 505.256 301.648 499.35 305.905 494.887C310.162 490.355 316.205 488.089 324.033 488.089C333.646 488.089 340.376 491.213 344.221 497.462C348.135 503.711 350.092 513.015 350.092 525.375C350.092 534.027 349.302 541.168 347.723 546.799C346.212 552.43 343.603 556.721 339.895 559.674C336.256 562.627 331.243 564.103 324.857 564.103C317.853 564.103 312.394 562.215 308.48 558.438C304.566 554.661 302.334 549.855 301.785 544.018H310.437ZM324.96 528.98C329.561 528.98 333.337 527.572 336.29 524.757C339.243 521.873 340.719 517.993 340.719 513.118C340.719 507.968 339.277 503.814 336.393 500.655C333.509 497.496 329.458 495.917 324.239 495.917C319.432 495.917 315.587 497.428 312.703 500.449C309.888 503.47 308.48 507.453 308.48 512.397C308.48 517.41 309.888 521.427 312.703 524.448C315.518 527.469 319.604 528.98 324.96 528.98Z" fill="black"/>
<path d="M502.914 497.08V488.531H522.278V563H512.802V497.08H502.914Z" fill="black"/>
<path d="M746.895 507.247C745.384 499.625 740.681 495.814 732.784 495.814C726.673 495.814 722.106 498.183 719.085 502.921C716.064 507.59 714.587 515.315 714.656 526.096C716.235 522.525 718.845 519.744 722.484 517.753C726.192 515.693 730.312 514.663 734.844 514.663C741.917 514.663 747.547 516.86 751.736 521.255C755.993 525.65 758.122 531.727 758.122 539.486C758.122 544.155 757.195 548.344 755.341 552.052C753.556 555.76 750.809 558.713 747.101 560.91C743.462 563.107 739.033 564.206 733.814 564.206C726.741 564.206 721.214 562.627 717.231 559.468C713.248 556.309 710.467 551.949 708.888 546.387C707.309 540.825 706.519 533.958 706.519 525.787C706.519 500.586 715.308 487.986 732.887 487.986C739.616 487.986 744.904 489.806 748.749 493.445C752.594 497.084 754.86 501.685 755.547 507.247H746.895ZM732.887 522.594C729.934 522.594 727.153 523.212 724.544 524.448C721.935 525.615 719.806 527.435 718.158 529.907C716.579 532.31 715.789 535.263 715.789 538.765C715.789 543.984 717.3 548.241 720.321 551.537C723.342 554.764 727.668 556.378 733.299 556.378C738.106 556.378 741.917 554.902 744.732 551.949C747.616 548.928 749.058 544.876 749.058 539.795C749.058 534.439 747.685 530.25 744.938 527.229C742.191 524.139 738.174 522.594 732.887 522.594Z" fill="black"/>
<path d="M114.265 705.282C121.063 705.282 126.556 707.205 130.745 711.05C134.934 714.895 137.028 720.045 137.028 726.5C137.028 733.71 134.796 739.066 130.333 742.568C125.87 746.001 119.827 747.718 112.205 747.718L111.896 757.503H103.759L103.347 741.229H106.334C113.132 741.229 118.454 740.199 122.299 738.139C126.144 736.079 128.067 732.199 128.067 726.5C128.067 722.38 126.831 719.118 124.359 716.715C121.887 714.312 118.557 713.11 114.368 713.11C110.111 713.11 106.746 714.277 104.274 716.612C101.871 718.878 100.669 722.002 100.669 725.985H91.811C91.811 721.865 92.738 718.26 94.592 715.17C96.446 712.011 99.0553 709.574 102.42 707.857C105.853 706.14 109.802 705.282 114.265 705.282ZM107.776 778.618C105.991 778.618 104.48 778 103.244 776.764C102.008 775.528 101.39 774.017 101.39 772.232C101.39 770.447 102.008 768.936 103.244 767.7C104.48 766.464 105.991 765.846 107.776 765.846C109.493 765.846 110.935 766.464 112.102 767.7C113.338 768.936 113.956 770.447 113.956 772.232C113.956 774.017 113.338 775.528 112.102 776.764C110.935 778 109.493 778.618 107.776 778.618Z" fill="black"/>
<path d="M349.221 710.844L320.587 778H311.111L340.157 711.771H300.399V703.737H349.221V710.844Z" fill="black"/>
<path d="M512.18 722.277C512.661 715.96 515.098 711.016 519.493 707.445C523.888 703.874 529.587 702.089 536.591 702.089C541.26 702.089 545.277 702.947 548.642 704.664C552.075 706.312 554.65 708.578 556.367 711.462C558.152 714.346 559.045 717.608 559.045 721.247C559.045 725.504 557.809 729.178 555.337 732.268C552.934 735.358 549.775 737.349 545.861 738.242V738.757C550.324 739.856 553.861 742.019 556.47 745.246C559.079 748.473 560.384 752.696 560.384 757.915C560.384 761.829 559.491 765.365 557.706 768.524C555.921 771.614 553.243 774.052 549.672 775.837C546.101 777.622 541.81 778.515 536.797 778.515C529.518 778.515 523.544 776.627 518.875 772.85C514.206 769.005 511.596 763.58 511.047 756.576H520.111C520.592 760.696 522.274 764.061 525.158 766.67C528.042 769.279 531.887 770.584 536.694 770.584C541.501 770.584 545.14 769.348 547.612 766.876C550.153 764.335 551.423 761.074 551.423 757.091C551.423 751.941 549.706 748.233 546.273 745.967C542.84 743.701 537.655 742.568 530.72 742.568H528.351V734.74H530.823C537.14 734.671 541.913 733.641 545.14 731.65C548.367 729.59 549.981 726.431 549.981 722.174C549.981 718.535 548.779 715.616 546.376 713.419C544.041 711.222 540.677 710.123 536.282 710.123C532.025 710.123 528.591 711.222 525.982 713.419C523.373 715.616 521.828 718.569 521.347 722.277H512.18Z" fill="black"/>
<path d="M719.12 761.417V754.31L755.273 704.252H766.5V753.28H776.8V761.417H766.5V778H757.23V761.417H719.12ZM757.642 714.037L729.935 753.28H757.642V714.037Z" fill="black"/>
</svg>
