<svg width="803" height="803" viewBox="0 0 803 803" fill="none" xmlns="http://www.w3.org/2000/svg">
<rect x="1" y="1" width="267" height="267" stroke="black" stroke-width="2"/>
<rect x="1" y="268" width="267" height="267" stroke="black" stroke-width="2"/>
<rect x="1" y="535" width="267" height="267" stroke="black" stroke-width="2"/>
<rect x="268" y="1" width="267" height="267" stroke="black" stroke-width="2"/>
<rect x="268" y="268" width="267" height="267" stroke="black" stroke-width="2"/>
<rect x="268" y="535" width="267" height="267" stroke="black" stroke-width="2"/>
<rect x="535" y="1" width="267" height="267" stroke="black" stroke-width="2"/>
<rect x="535" y="268" width="267" height="267" stroke="black" stroke-width="2"/>
<circle cx="134.5" cy="134.5" r="56" stroke="black" stroke-width="3"/>
<circle cx="401.5" cy="134.5" r="56" stroke="black" stroke-width="3"/>
<circle cx="401.5" cy="401.5" r="56" stroke="black" stroke-width="3"/>
<circle cx="401.5" cy="668.5" r="56" stroke="black" stroke-width="3"/>
<circle cx="668.5" cy="134.5" r="56" stroke="black" stroke-width="3"/>
<circle cx="668.5" cy="401.5" r="56" stroke="black" stroke-width="3"/>
<circle cx="134.5" cy="401.5" r="56" stroke="black" stroke-width="3"/>
<circle cx="134.5" cy="668.5" r="56" stroke="black" stroke-width="3"/>
<line x1="134" y1="79" x2="134" y2="13" stroke="black" stroke-width="2"/>
<line x1="279" y1="134" x2="345" y2="134" stroke="black" stroke-width="2"/>
<line x1="458" y1="134" x2="524" y2="134" stroke="black" stroke-width="2"/>
<line x1="548" y1="134" x2="614" y2="134" stroke="black" stroke-width="2"/>
<line x1="400" y1="256" x2="400" y2="190" stroke="black" stroke-width="2"/>
<line x1="12.0004" y1="134" x2="78.0004" y2="134" stroke="black" stroke-width="2"/>
<line x1="133" y1="524" x2="133" y2="458" stroke="black" stroke-width="2"/>
<line x1="133" y1="613" x2="133" y2="547" stroke="black" stroke-width="2"/>
<line x1="135" y1="345" x2="135" y2="279" stroke="black" stroke-width="2"/>
<line x1="190" y1="401" x2="256" y2="401" stroke="black" stroke-width="2"/>
<line x1="400" y1="524" x2="400" y2="458" stroke="black" stroke-width="2"/>
<line x1="667" y1="524" x2="667" y2="458" stroke="black" stroke-width="2"/>
<line x1="400" y1="790" x2="400" y2="724" stroke="black" stroke-width="2"/>
<line x1="457" y1="401" x2="523" y2="401" stroke="black" stroke-width="2"/>
<line x1="725" y1="401" x2="791" y2="401" stroke="black" stroke-width="2"/>
<line x1="457" y1="668" x2="523" y2="668" stroke="black" stroke-width="2"/>
</svg>
